<?xml version="1.0" encoding="UTF-8"?>
<svg width="128" height="128" viewBox="0 0 128 128" fill="none" xmlns="http://www.w3.org/2000/svg">
  <rect width="128" height="128" rx="64" fill="#A855F7" fill-opacity="0.1"/>
  <path d="M64 32C45.2 32 30 47.2 30 66C30 84.8 45.2 100 64 100C82.8 100 98 84.8 98 66C98 47.2 82.8 32 64 32ZM64 96C47.2 96 34 82.8 34 66C34 49.2 47.2 36 64 36C80.8 36 94 49.2 94 66C94 82.8 80.8 96 64 96Z" fill="#A855F7"/>
  <path d="M64 40C52.8 40 44 48.8 44 60V72C44 83.2 52.8 92 64 92C75.2 92 84 83.2 84 72V60C84 48.8 75.2 40 64 40ZM80 72C80 80.8 72.8 88 64 88C55.2 88 48 80.8 48 72V60C48 51.2 55.2 44 64 44C72.8 44 80 51.2 80 60V72Z" fill="#A855F7"/>
  <path d="M64 48C58.4 48 54 52.4 54 58V74C54 79.6 58.4 84 64 84C69.6 84 74 79.6 74 74V58C74 52.4 69.6 48 64 48ZM70 74C70 77.2 67.2 80 64 80C60.8 80 58 77.2 58 74V58C58 54.8 60.8 52 64 52C67.2 52 70 54.8 70 58V74Z" fill="#A855F7"/>
</svg> 